<svg xmlns="http://www.w3.org/2000/svg" viewBox="0 0 190 100" role="img" aria-label="United States flag">
  <rect width="190" height="100" fill="#fff"/>
  <!-- Red stripes -->
  <g fill="#B22234">
    <rect y="0" width="190" height="7.692"/>
    <rect y="15.384" width="190" height="7.692"/>
    <rect y="30.768" width="190" height="7.692"/>
    <rect y="46.152" width="190" height="7.692"/>
    <rect y="61.536" width="190" height="7.692"/>
    <rect y="76.92" width="190" height="7.692"/>
    <rect y="92.304" width="190" height="7.692"/>
  </g>
  <!-- Blue canton -->
  <rect width="76" height="53.846" fill="#3C3B6E"/>
  <!-- Simplified stars -->
  <g fill="#fff">
    <circle cx="7.6" cy="6.7" r="1.6"/>
    <circle cx="19" cy="6.7" r="1.6"/>
    <circle cx="30.4" cy="6.7" r="1.6"/>
    <circle cx="41.8" cy="6.7" r="1.6"/>
    <circle cx="53.2" cy="6.7" r="1.6"/>
    <circle cx="64.6" cy="6.7" r="1.6"/>

    <circle cx="13.3" cy="13.5" r="1.6"/>
    <circle cx="24.7" cy="13.5" r="1.6"/>
    <circle cx="36.1" cy="13.5" r="1.6"/>
    <circle cx="47.5" cy="13.5" r="1.6"/>
    <circle cx="58.9" cy="13.5" r="1.6"/>

    <circle cx="7.6" cy="20.3" r="1.6"/>
    <circle cx="19" cy="20.3" r="1.6"/>
    <circle cx="30.4" cy="20.3" r="1.6"/>
    <circle cx="41.8" cy="20.3" r="1.6"/>
    <circle cx="53.2" cy="20.3" r="1.6"/>
    <circle cx="64.6" cy="20.3" r="1.6"/>

    <circle cx="13.3" cy="27.1" r="1.6"/>
    <circle cx="24.7" cy="27.1" r="1.6"/>
    <circle cx="36.1" cy="27.1" r="1.6"/>
    <circle cx="47.5" cy="27.1" r="1.6"/>
    <circle cx="58.9" cy="27.1" r="1.6"/>

    <circle cx="7.6" cy="33.9" r="1.6"/>
    <circle cx="19" cy="33.9" r="1.6"/>
    <circle cx="30.4" cy="33.9" r="1.6"/>
    <circle cx="41.8" cy="33.9" r="1.6"/>
    <circle cx="53.2" cy="33.9" r="1.6"/>
    <circle cx="64.6" cy="33.9" r="1.6"/>

    <circle cx="13.3" cy="40.7" r="1.6"/>
    <circle cx="24.7" cy="40.7" r="1.6"/>
    <circle cx="36.1" cy="40.7" r="1.6"/>
    <circle cx="47.5" cy="40.7" r="1.6"/>
    <circle cx="58.9" cy="40.7" r="1.6"/>
  </g>
</svg>
